<svg width="560" height="680" viewBox="0 0 560 680" fill="none" xmlns="http://www.w3.org/2000/svg">
  <defs>
    <radialGradient id="sb1" cx="32%" cy="26%" r="80%">
      <stop offset="0%" stop-color="#ff7a6d"/>
      <stop offset="50%" stop-color="#e6392f"/>
      <stop offset="100%" stop-color="#a81f18"/>
    </radialGradient>
    <linearGradient id="sbg" x1="0%" y1="0%" x2="100%" y2="100%">
      <stop offset="0%" stop-color="#fbe3df"/>
      <stop offset="100%" stop-color="#f6cec7"/>
    </linearGradient>
    <linearGradient id="slg" x1="0%" y1="0%" x2="100%" y2="100%">
      <stop offset="0%" stop-color="#6dae5f"/>
      <stop offset="100%" stop-color="#2d6b3f"/>
    </linearGradient>
  </defs>

  <rect width="560" height="680" rx="22" fill="url(#sbg)"/>

  <circle cx="150" cy="120" r="130" fill="url(#sb1)"/>
  <circle cx="430" cy="160" r="110" fill="url(#sb1)"/>
  <circle cx="260" cy="330" r="165" fill="url(#sb1)"/>
  <circle cx="470" cy="420" r="120" fill="url(#sb1)"/>
  <circle cx="150" cy="530" r="140" fill="url(#sb1)"/>
  <circle cx="400" cy="600" r="95" fill="url(#sb1)"/>

  <!-- water droplet highlights -->
  <ellipse cx="110" cy="80" rx="14" ry="20" fill="#ffffff" opacity="0.55"/>
  <ellipse cx="395" cy="120" rx="10" ry="15" fill="#ffffff" opacity="0.5"/>
  <ellipse cx="210" cy="280" rx="16" ry="22" fill="#ffffff" opacity="0.5"/>
  <ellipse cx="440" cy="380" rx="12" ry="17" fill="#ffffff" opacity="0.5"/>
  <ellipse cx="110" cy="490" rx="13" ry="18" fill="#ffffff" opacity="0.5"/>

  <!-- calyx leaves peeking -->
  <path d="M150 -10 C135 -25 110 -22 100 -8 C118 -18 138 -12 150 -2 C150 -18 175 -28 200 -18 C182 -22 160 -18 150 -10Z" fill="url(#slg)"/>
  <path d="M260 165 C245 150 220 153 210 167 C228 157 248 163 260 173 C260 157 285 147 310 157 C292 153 270 157 260 165Z" fill="url(#slg)"/>
  <path d="M150 390 C135 375 110 378 100 392 C118 382 138 388 150 398 C150 382 175 372 200 382 C182 378 160 382 150 390Z" fill="url(#slg)"/>
</svg>
